HIERARCHY
ROOT root
{
	OFFSET	0	13.1	24.9
	CHANNELS 6  Xposition Yposition Zposition Xrotation Yrotation Zrotation
	JOINT spine_1
	{
		OFFSET	0	9.99999	0
		CHANNELS 3  Xrotation Yrotation Zrotation
		JOINT spine_2
		{
			OFFSET	0	112	-10
			CHANNELS 3  Xrotation Yrotation Zrotation
			JOINT spine_3
			{
				OFFSET	0	206.5	19.3
				CHANNELS 3  Xrotation Yrotation Zrotation
				JOINT spine_4
				{
					OFFSET	0	110.4	14.6
					CHANNELS 3  Xrotation Yrotation Zrotation
					JOINT neck_1
					{
						OFFSET	0	71.8	-50.3
						CHANNELS 3  Xrotation Yrotation Zrotation
						JOINT neck_2
						{
							OFFSET	0	86.2	-25.8
							CHANNELS 3  Xrotation Yrotation Zrotation
							JOINT head_ee
							{
								OFFSET	0	179.8	-8.7
								CHANNELS 3  Xrotation Yrotation Zrotation
								End Site
								{
									OFFSET	1	0	0
								}
							}
						}
					}
					JOINT left_clavicle
					{
						OFFSET	-43.2	22.4	-70.8
						CHANNELS 3  Xrotation Yrotation Zrotation
						JOINT left_shoulder
						{
							OFFSET	-93.9	-5.79999	48.7
							CHANNELS 3  Xrotation Yrotation Zrotation
							JOINT left_elbow
							{
								OFFSET	-291.4	-30.8	15.2
								CHANNELS 3  Xrotation Yrotation Zrotation
								JOINT left_lowarm_twist
								{
									OFFSET	-110.7	-3.89999	13.6
									CHANNELS 3  Xrotation Yrotation Zrotation
									JOINT left_hand
									{
										OFFSET	-110.7	-3.89999	13.6
										CHANNELS 3  Xrotation Yrotation Zrotation
										JOINT left_ee
										{
											OFFSET	-80.8	-5.10001	12.1
											CHANNELS 3  Xrotation Yrotation Zrotation
											End Site
											{
												OFFSET	1	0	0
											}
										}
									}
								}
							}
						}
					}
					JOINT right_clavicle
					{
						OFFSET	43.2	22.4	-70.8
						CHANNELS 3  Xrotation Yrotation Zrotation
						JOINT right_shoulder
						{
							OFFSET	93.9	-5.79999	48.7
							CHANNELS 3  Xrotation Yrotation Zrotation
							JOINT right_elbow
							{
								OFFSET	291.4	-30.8	15.2
								CHANNELS 3  Xrotation Yrotation Zrotation
								JOINT right_lowarm_twist
								{
									OFFSET	110.7	-3.89999	13.6
									CHANNELS 3  Xrotation Yrotation Zrotation
									JOINT right_hand
									{
										OFFSET	110.7	-3.89999	13.6
										CHANNELS 3  Xrotation Yrotation Zrotation
										JOINT right_ee
										{
											OFFSET	80.8	-5.10001	12.1
											CHANNELS 3  Xrotation Yrotation Zrotation
											End Site
											{
												OFFSET	1	0	0
											}
										}
									}
								}
							}
						}
					}
				}
			}
		}
	}
	JOINT left_hip
	{
		OFFSET	-82.8	-127.5	0.300001
		CHANNELS 3  Xrotation Yrotation Zrotation
		JOINT left_knee
		{
			OFFSET	-28.2	-396.7	2.2
			CHANNELS 3  Xrotation Yrotation Zrotation
			JOINT left_ankle
			{
				OFFSET	-11.7	-411.3	35.4
				CHANNELS 3  Xrotation Yrotation Zrotation
				JOINT left_toes
				{
					OFFSET	0	-60	-88.6
					CHANNELS 3  Xrotation Yrotation Zrotation
					JOINT left_foot_ee
					{
						OFFSET	-22.5	-16.5	-42.2
						CHANNELS 3  Xrotation Yrotation Zrotation
						End Site
						{
							OFFSET	1	0	0
						}
					}
				}
			}
		}
	}
	JOINT right_hip
	{
		OFFSET	82.8	-127.5	0.300001
		CHANNELS 3  Xrotation Yrotation Zrotation
		JOINT right_knee
		{
			OFFSET	28.2	-396.7	2.2
			CHANNELS 3  Xrotation Yrotation Zrotation
			JOINT right_ankle
			{
				OFFSET	11.7	-411.3	35.4
				CHANNELS 3  Xrotation Yrotation Zrotation
				JOINT right_toes
				{
					OFFSET	0	-60	-88.6
					CHANNELS 3  Xrotation Yrotation Zrotation
					JOINT right_foot_ee
					{
						OFFSET	22.5	-16.5	-42.2
						CHANNELS 3  Xrotation Yrotation Zrotation
						End Site
						{
							OFFSET	1	0	0
						}
					}
				}
			}
		}
	}
}
MOTION
Frames: 5
Frame Time: 0.02
2561.33 719.355 -978.207 -17.1031 64.1119 18.147 1.05844 -0.172317 -1.8071 1.06026 -0.0569967 -1.8144 1.06243 0.292537 -1.79157 1.05795 0.00596839 -1.81528 -3.71215 15.0365 12.4333 -3.25111 17.8846 15.0395 -0.0 0.0 -0.0 9.84975 4.75568 19.0555 -32.3182 -12.8057 61.8348 0.654014 -17.9513 0.103302 -0.0736293 -0.00260007 0.00904383 0.664755 4.88232 6.42364 -0.0 0.0 -0.0 10.574 7.76424 -21.096 -9.47678 25.5477 -42.9095 1.51792 36.9382 -0.507005 41.2124 0.41382 5.13645 1.27111 7.0263 -5.60728 0.0 0.0 0.0 45.8419 -28.3512 1.79136 -25.5669 0.18818 3.88653 17.7726 14.5158 -2.47031 -6.66808 0.0 0.0 -0.0 0.0 -0.0 -1.42419 0.493425 -0.0518182 -27.9365 -0.117554 -4.2433 29.9935 11.787 4.08444 -4.16507 0.0 0.0 0.0 0.0 0.0 
2541.64 714.602 -978.208 -15.1048 62.9716 16.4554 1.04273 -0.2255 -1.76611 1.04445 -0.112678 -1.77688 1.04834 0.231091 -1.76539 1.04399 -0.0505745 -1.77973 -3.81362 15.1976 12.3913 -3.35346 18.2497 15.0269 -0.0 0.0 -0.0 10.2636 3.79887 19.953 -28.2742 -11.8843 61.2416 0.586615 -16.2036 0.0835071 -0.560009 -0.0200677 0.0687019 0.777327 6.32143 7.73711 -0.0 0.0 -0.0 10.6396 8.50274 -21.2431 -10.2698 25.1753 -43.1238 1.40448 34.8259 -0.440506 41.9347 0.453698 5.21979 1.4436 6.62785 -6.94734 0.0 0.0 0.0 47.1176 -27.3381 2.35053 -25.2295 0.197034 3.8355 12.477 13.7277 -1.76746 -9.66322 0.0 0.0 -0.0 0.0 -0.0 -1.80673 3.84159 -0.371773 -30.7681 -0.0138803 -4.66545 30.069 12.3728 4.10643 -3.70717 0.0 0.0 0.0 0.0 0.0 
2513.08 725.026 -975.456 -13.6351 62.5091 15.9397 0.948084 -0.251886 -2.07688 0.950476 -0.119248 -2.08869 0.955415 0.287996 -2.07218 0.949424 -0.0428069 -2.09165 -3.86817 14.9532 11.9994 -3.43429 18.1254 14.5973 -0.0 0.0 -0.0 10.4711 3.55044 20.3905 -27.8165 -11.3916 62.3447 0.579179 -16.0088 0.0814443 -0.850395 -0.0307382 0.104249 0.731595 5.85884 7.25319 -0.0 0.0 -0.0 10.6646 8.10677 -21.2964 -11.6647 24.4089 -43.9615 1.22123 31.1712 -0.340655 41.903 0.451929 5.21615 1.39946 6.07551 -6.88093 0.0 0.0 0.0 45.919 -27.3201 2.24437 -30.234 0.0350313 4.58622 9.53603 12.8415 -1.36264 -10.1996 0.0 0.0 -0.0 0.0 -0.0 -1.32532 4.87438 0.11092 -31.0798 -0.00119411 -4.71161 30.6016 13.4372 4.19117 -3.74516 0.0 0.0 0.0 0.0 0.0 
2486.37 734.615 -985.154 -13.0248 62.0674 16.3639 0.876556 -0.307401 -2.40298 0.879755 -0.153916 -2.41766 0.887116 0.32066 -2.40125 0.879074 -0.0624817 -2.42175 -4.00705 14.8647 11.9564 -3.57917 18.0418 14.5518 -0.0 0.0 -0.0 10.6265 3.10495 20.741 -26.1059 -11.0813 62.8055 0.605728 -16.7025 0.0889203 -0.859891 -0.0310901 0.105411 0.658606 5.77478 6.73839 -0.0 0.0 -0.0 10.603 7.53072 -21.1577 -12.9723 23.5791 -45.0995 1.00202 26.3979 -0.235007 41.6746 0.439218 5.18984 1.39397 6.03764 -6.85962 0.0 0.0 0.0 43.9625 -27.055 1.12755 -36.5997 -0.264732 5.51637 8.49427 11.4079 -1.2157 -10.31 0.0 0.0 -0.0 0.0 -0.0 -0.543491 5.01935 1.0027 -30.9286 -0.0073797 -4.68923 31.3132 15.0378 4.31225 -3.7989 0.0 0.0 0.0 0.0 0.0 
2455.04 737.473 -996.424 -11.9965 60.9756 15.7448 0.697492 -0.126621 -2.39419 0.700681 0.0259398 -2.39739 0.700429 0.500897 -2.34465 0.692778 0.124428 -2.3943 -3.36567 14.9285 11.1776 -2.96459 18.5632 13.7133 -0.0 0.0 -0.0 10.7755 2.50513 21.0925 -24.5426 -12.1486 62.9056 0.572659 -15.8376 0.0796554 -0.847394 -0.0306271 0.103882 0.248938 5.29623 3.84916 -0.0 0.0 -0.0 11.0746 8.08053 -22.1978 -14.1684 23.1252 -45.6637 0.852262 22.8886 -0.172535 41.6124 0.435773 5.18266 1.06151 2.05255 -6.26782 0.0 0.0 0.0 46.7279 -33.5354 5.5614 -41.2886 -0.550774 6.17771 6.15127 15.806 -0.893357 -9.36889 0.0 0.0 -0.0 0.0 -0.0 0.434101 4.57515 1.13101 -33.6329 0.112141 -5.08694 31.0061 13.0457 4.22516 -2.9908 0.0 0.0 0.0 0.0 0.0 
